<svg width="44" height="43" viewBox="0 0 44 43" fill="none" xmlns="http://www.w3.org/2000/svg">
    <ellipse cx="22" cy="21.5" rx="22" ry="21.5" fill="white"/>
    <path d="M9.90343 32.2902V25.8986L12.9955 22.7481V32.2902H9.90343ZM15.4533 32.2902V22.7481L18.5696 25.1635V32.2902H15.4533ZM20.8447 32.2902V25.1635L24.1746 22.4437V32.3148L20.8447 32.2902ZM7.5249 24.9115V21.4566L13.9866 14.3988L19.8536 19.1699L30.121 10.8205V14.1901L19.8536 22.5394L13.9866 17.7684L7.5249 24.9115Z" fill="#8E8E8E"/>
    <path d="M26.5532 32.3148V21.2151L29.8832 18.4953V32.3148H26.5532Z" fill="#8E8E8E"/>
    <path d="M19.8953 19.1463L29.4315 11.4089L26.1469 11.2836L26.2411 8.62421L33.821 8.91323L33.5384 16.8914L31.0117 16.7951L31.1342 13.3379L19.8941 22.5112L13.9947 17.7549L7.52496 24.9117L7.52496 21.4568L13.9943 14.3968L19.8953 19.1463Z" fill="#8E8E8E"/>
</svg>
