<svg width="43" height="43" viewBox="0 0 43 43" fill="none" xmlns="http://www.w3.org/2000/svg">
    <circle cx="21.5" cy="21.5" r="21.5" fill="white"/>
    <path d="M11.9755 29.3333H16.4388V21.3333H25.3653V29.3333H29.8286C29.8286 29.3333 30.6 21.3333 29.8286 17.3333C29.447 15.3548 20.902 11.3333 20.902 11.3333C20.902 11.3333 12.3705 14.5806 11.9755 17.3333C11.2041 22.7097 11.9755 29.3333 11.9755 29.3333ZM9 32C9 32 9.00088 21.3893 9 16C8.99958 13.4194 20.902 8 20.902 8C20.902 8 32.6373 14.1935 32.8041 16C33.2449 20.7742 32.8041 32 32.8041 32H22.3898V24H19.4143V32H9Z" fill="#8E8E8E"/>
</svg>
