<svg width="44" height="43" viewBox="0 0 44 43" fill="none" xmlns="http://www.w3.org/2000/svg">
    <ellipse cx="22" cy="21.5" rx="22" ry="21.5" fill="#8E8E8E"/>
    <path d="M21.1964 24.23C22.7305 24.23 24.0346 23.78 25.1084 22.88C26.1823 21.98 26.7193 20.89 26.7193 19.61C26.7193 18.47 26.3193 17.505 25.5194 16.715C24.7194 15.925 23.7496 15.53 22.61 15.53C21.5799 15.53 20.7088 15.83 19.9965 16.43C19.2842 17.03 18.9281 17.77 18.9281 18.65C18.9281 19.03 19.0103 19.4 19.1746 19.76C19.339 20.12 19.5746 20.45 19.8814 20.75L21.7553 19.04C21.6895 19 21.6402 18.95 21.6073 18.89C21.5745 18.83 21.558 18.76 21.558 18.68C21.558 18.46 21.6566 18.285 21.8539 18.155C22.0511 18.025 22.3032 17.96 22.61 17.96C23.0483 17.96 23.4099 18.125 23.6948 18.455C23.9798 18.785 24.1222 19.18 24.1222 19.64C24.1222 20.26 23.8428 20.785 23.2839 21.215C22.7251 21.645 22.0402 21.86 21.2293 21.86C20.1992 21.86 19.328 21.48 18.6158 20.72C17.9035 19.96 17.5473 19.03 17.5473 17.93C17.5473 17.35 17.6679 16.795 17.909 16.265C18.15 15.735 18.4897 15.27 18.9281 14.87L17.0542 13.16C16.3529 13.78 15.816 14.5 15.4434 15.32C15.0708 16.14 14.8845 17 14.8845 17.9C14.8845 19.66 15.4982 21.155 16.7255 22.385C17.9528 23.615 19.4431 24.23 21.1964 24.23ZM12.9449 32V26.84C11.6957 25.8 10.7259 24.585 10.0355 23.195C9.34518 21.805 9 20.34 9 18.8C9 15.8 10.1506 13.25 12.4518 11.15C14.753 9.05 17.5473 8 20.8348 8C23.5743 8 26.0015 8.735 28.1165 10.205C30.2314 11.675 31.6066 13.59 32.2422 15.95L33.9517 22.1C34.0612 22.48 33.9845 22.825 33.7215 23.135C33.4585 23.445 33.1079 23.6 32.6696 23.6H30.0396V27.2C30.0396 27.86 29.7821 28.425 29.2671 28.895C28.752 29.365 28.1329 29.6 27.4097 29.6H24.7797V32H22.1498V27.2H27.4097V21.2H30.9601L29.7109 16.55C29.2068 14.73 28.1329 13.25 26.4892 12.11C24.8455 10.97 22.9607 10.4 20.8348 10.4C18.2925 10.4 16.1228 11.21 14.3257 12.83C12.5285 14.45 11.63 16.42 11.63 18.74C11.63 19.94 11.8984 21.08 12.4354 22.16C12.9723 23.24 13.7339 24.2 14.7201 25.04L15.5749 25.76V32H12.9449Z" fill="white"/>
</svg>
