<svg width="44" height="43" viewBox="0 0 44 43" fill="none" xmlns="http://www.w3.org/2000/svg">
    <ellipse cx="22" cy="21.5" rx="22" ry="21.5" fill="white"/>
    <path d="M19.4786 19.2941C18.0378 19.2941 16.8044 18.7412 15.7783 17.6353C14.7523 16.5294 14.2393 15.2 14.2393 13.6471C14.2393 12.0941 14.7523 10.7647 15.7783 9.65882C16.8044 8.55294 18.0378 8 19.4786 8C20.9194 8 22.1528 8.55294 23.1788 9.65882C24.2049 10.7647 24.7179 12.0941 24.7179 13.6471C24.7179 15.2 24.2049 16.5294 23.1788 17.6353C22.1528 18.7412 20.9194 19.2941 19.4786 19.2941ZM9 30.5882V26.6353C9 25.8588 9.18556 25.1294 9.55668 24.4471C9.92779 23.7647 10.4408 23.2471 11.0957 22.8941C12.2091 22.2824 13.4643 21.7647 14.8615 21.3412C16.2586 20.9176 17.7976 20.7059 19.4786 20.7059H19.937C20.068 20.7059 20.199 20.7294 20.33 20.7765C20.1553 21.2 20.008 21.6412 19.8879 22.1C19.7678 22.5588 19.6751 23.0353 19.6096 23.5294H19.4786C17.9286 23.5294 16.5369 23.7412 15.3035 24.1647C14.0701 24.5882 13.0605 25.0118 12.2746 25.4353C12.0781 25.5529 11.9198 25.7176 11.7997 25.9294C11.6797 26.1412 11.6196 26.3765 11.6196 26.6353V27.7647H19.8715C20.0025 28.2588 20.1772 28.7471 20.3955 29.2294C20.6138 29.7118 20.8539 30.1647 21.1159 30.5882H9ZM27.3375 32L26.9446 29.8824C26.6826 29.7647 26.437 29.6412 26.2078 29.5118C25.9786 29.3824 25.7439 29.2235 25.5038 29.0353L23.6045 29.6706L22.2947 27.2706L23.801 25.8588C23.7573 25.5294 23.7355 25.2235 23.7355 24.9412C23.7355 24.6588 23.7573 24.3529 23.801 24.0235L22.2947 22.6118L23.6045 20.2118L25.5038 20.8471C25.7439 20.6588 25.9786 20.5 26.2078 20.3706C26.437 20.2412 26.6826 20.1176 26.9446 20L27.3375 17.8824H29.9572L30.3501 20C30.6121 20.1176 30.8577 20.2471 31.0869 20.3882C31.3161 20.5294 31.5508 20.7059 31.7909 20.9176L33.6902 20.2118L35 22.6824L33.4937 24.0941C33.5374 24.3765 33.5592 24.6706 33.5592 24.9765C33.5592 25.2824 33.5374 25.5765 33.4937 25.8588L35 27.2706L33.6902 29.6706L31.7909 29.0353C31.5508 29.2235 31.3161 29.3824 31.0869 29.5118C30.8577 29.6412 30.6121 29.7647 30.3501 29.8824L29.9572 32H27.3375ZM28.6474 27.7647C29.3678 27.7647 29.9845 27.4882 30.4975 26.9353C31.0105 26.3824 31.267 25.7176 31.267 24.9412C31.267 24.1647 31.0105 23.5 30.4975 22.9471C29.9845 22.3941 29.3678 22.1176 28.6474 22.1176C27.927 22.1176 27.3102 22.3941 26.7972 22.9471C26.2842 23.5 26.0277 24.1647 26.0277 24.9412C26.0277 25.7176 26.2842 26.3824 26.7972 26.9353C27.3102 27.4882 27.927 27.7647 28.6474 27.7647ZM19.4786 16.4706C20.199 16.4706 20.8157 16.1941 21.3287 15.6412C21.8417 15.0882 22.0982 14.4235 22.0982 13.6471C22.0982 12.8706 21.8417 12.2059 21.3287 11.6529C20.8157 11.1 20.199 10.8235 19.4786 10.8235C18.7582 10.8235 18.1415 11.1 17.6285 11.6529C17.1154 12.2059 16.8589 12.8706 16.8589 13.6471C16.8589 14.4235 17.1154 15.0882 17.6285 15.6412C18.1415 16.1941 18.7582 16.4706 19.4786 16.4706Z" fill="#8E8E8E"/>
</svg>
