<svg width="288" height="68" viewBox="0 0 288 68" fill="none" xmlns="http://www.w3.org/2000/svg">
    <circle opacity="0.8" cx="250.047" cy="31.4339" r="9.99027" transform="rotate(18.9467 250.047 31.4339)" fill="#CDF6FF"/>
    <circle opacity="0.8" cx="209.919" cy="46.0098" r="13.3787" transform="rotate(18.9467 209.919 46.0098)" fill="#D3F2D7"/>
    <circle opacity="0.8" cx="155.177" cy="51.4302" r="15.9733" transform="rotate(18.9467 155.177 51.4302)" fill="#FFF7CC"/>
    <circle opacity="0.8" cx="95.1352" cy="43.8897" r="18.6363" transform="rotate(18.9467 95.1352 43.8897)" fill="#FFE2CC"/>
    <circle opacity="0.8" cx="34.4082" cy="23.884" r="22.9034" transform="rotate(18.9467 34.4082 23.884)" fill="#FFD3FA"/>
    <path d="M6.88082 44C5.44883 44 4.21708 43.6845 3.18556 43.0536C2.16012 42.4164 1.37131 41.5331 0.819145 40.4038C0.273048 39.2744 0 37.9748 0 36.5047C0 35.0158 0.276082 33.7098 0.828247 32.5868C1.38648 31.4574 2.17832 30.5773 3.20377 29.9464C4.22922 29.3091 5.44883 28.9905 6.86262 28.9905C8.08223 28.9905 9.15015 29.2208 10.0664 29.6814C10.9826 30.142 11.7077 30.7886 12.2417 31.6215C12.7756 32.4543 13.0699 33.4322 13.1245 34.5552H9.46568C9.36252 33.8297 9.08948 33.2461 8.64653 32.8044C8.20965 32.3565 7.63625 32.1325 6.92633 32.1325C6.32562 32.1325 5.80076 32.3028 5.35175 32.6435C4.9088 32.9779 4.56294 33.4669 4.31416 34.1104C4.06539 34.7539 3.941 35.5331 3.941 36.4479C3.941 37.3754 4.06235 38.164 4.30506 38.8139C4.55384 39.4637 4.90273 39.959 5.35175 40.2997C5.80076 40.6404 6.32562 40.8107 6.92633 40.8107C7.36927 40.8107 7.76671 40.7161 8.11864 40.5268C8.47663 40.3375 8.77092 40.0631 9.00149 39.7035C9.23813 39.3375 9.39286 38.8991 9.46568 38.388H13.1245C13.0638 39.4984 12.7726 40.4763 12.2508 41.3218C11.735 42.1609 11.0221 42.817 10.1119 43.2902C9.20173 43.7634 8.1247 44 6.88082 44Z" fill="#535353"/>
    <path d="M21.9235 44C20.5097 44 19.2871 43.6877 18.2556 43.0631C17.2301 42.4322 16.4383 41.5552 15.88 40.4322C15.3218 39.3028 15.0427 37.9937 15.0427 36.5047C15.0427 35.0032 15.3218 33.6909 15.88 32.5678C16.4383 31.4385 17.2301 30.5615 18.2556 29.9369C19.2871 29.306 20.5097 28.9905 21.9235 28.9905C23.3373 28.9905 24.5569 29.306 25.5824 29.9369C26.6139 30.5615 27.4087 31.4385 27.967 32.5678C28.5252 33.6909 28.8043 35.0032 28.8043 36.5047C28.8043 37.9937 28.5252 39.3028 27.967 40.4322C27.4087 41.5552 26.6139 42.4322 25.5824 43.0631C24.5569 43.6877 23.3373 44 21.9235 44ZM21.9417 40.877C22.5849 40.877 23.1219 40.6877 23.5527 40.3091C23.9835 39.9243 24.3081 39.4006 24.5266 38.7382C24.7511 38.0757 24.8633 37.3218 24.8633 36.4763C24.8633 35.6309 24.7511 34.877 24.5266 34.2145C24.3081 33.5521 23.9835 33.0284 23.5527 32.6435C23.1219 32.2587 22.5849 32.0662 21.9417 32.0662C21.2925 32.0662 20.7464 32.2587 20.3034 32.6435C19.8665 33.0284 19.5358 33.5521 19.3113 34.2145C19.0929 34.877 18.9837 35.6309 18.9837 36.4763C18.9837 37.3218 19.0929 38.0757 19.3113 38.7382C19.5358 39.4006 19.8665 39.9243 20.3034 40.3091C20.7464 40.6877 21.2925 40.877 21.9417 40.877Z" fill="#535353"/>
    <path d="M43.574 44C42.142 44 40.9102 43.6845 39.8787 43.0536C38.8533 42.4164 38.0645 41.5331 37.5123 40.4038C36.9662 39.2744 36.6931 37.9748 36.6931 36.5047C36.6931 35.0158 36.9692 33.7098 37.5214 32.5868C38.0796 31.4574 38.8715 30.5773 39.8969 29.9464C40.9224 29.3091 42.142 28.9905 43.5558 28.9905C44.7754 28.9905 45.8433 29.2208 46.7595 29.6814C47.6758 30.142 48.4008 30.7886 48.9348 31.6215C49.4688 32.4543 49.7631 33.4322 49.8177 34.5552H46.1588C46.0557 33.8297 45.7826 33.2461 45.3397 32.8044C44.9028 32.3565 44.3294 32.1325 43.6195 32.1325C43.0188 32.1325 42.4939 32.3028 42.0449 32.6435C41.6019 32.9779 41.2561 33.4669 41.0073 34.1104C40.7585 34.7539 40.6341 35.5331 40.6341 36.4479C40.6341 37.3754 40.7555 38.164 40.9982 38.8139C41.247 39.4637 41.5959 39.959 42.0449 40.2997C42.4939 40.6404 43.0188 40.8107 43.6195 40.8107C44.0624 40.8107 44.4599 40.7161 44.8118 40.5268C45.1698 40.3375 45.4641 40.0631 45.6946 39.7035C45.9313 39.3375 46.086 38.8991 46.1588 38.388H49.8177C49.757 39.4984 49.4657 40.4763 48.9439 41.3218C48.4282 42.1609 47.7152 42.817 46.805 43.2902C45.8949 43.7634 44.8178 44 43.574 44Z" fill="#535353"/>
    <path d="M56.1774 35.3123V43.7161H52.3001V24.3344H56.0682V31.7445H56.232C56.5476 30.8864 57.0572 30.2145 57.7611 29.7287C58.465 29.2366 59.3478 28.9905 60.4097 28.9905C61.3805 28.9905 62.227 29.2114 62.949 29.653C63.6771 30.0883 64.2414 30.7161 64.6419 31.5363C65.0485 32.3502 65.2487 33.3249 65.2426 34.4606V43.7161H61.3653V35.1798C61.3714 34.2839 61.153 33.5868 60.71 33.0883C60.2731 32.5899 59.6603 32.3407 58.8715 32.3407C58.3436 32.3407 57.8764 32.4574 57.4698 32.6909C57.0694 32.9243 56.7539 33.265 56.5233 33.7129C56.2988 34.1546 56.1835 34.6877 56.1774 35.3123Z" fill="#535353"/>
    <path d="M74.6105 44C73.1785 44 71.9467 43.6845 70.9152 43.0536C69.8898 42.4164 69.1009 41.5331 68.5488 40.4038C68.0027 39.2744 67.7296 37.9748 67.7296 36.5047C67.7296 35.0158 68.0057 33.7098 68.5579 32.5868C69.1161 31.4574 69.908 30.5773 70.9334 29.9464C71.9589 29.3091 73.1785 28.9905 74.5922 28.9905C75.8119 28.9905 76.8798 29.2208 77.796 29.6814C78.7122 30.142 79.4373 30.7886 79.9713 31.6215C80.5053 32.4543 80.7996 33.4322 80.8542 34.5552H77.1953C77.0922 33.8297 76.8191 33.2461 76.3762 32.8044C75.9393 32.3565 75.3659 32.1325 74.656 32.1325C74.0553 32.1325 73.5304 32.3028 73.0814 32.6435C72.6384 32.9779 72.2926 33.4669 72.0438 34.1104C71.795 34.7539 71.6706 35.5331 71.6706 36.4479C71.6706 37.3754 71.792 38.164 72.0347 38.8139C72.2835 39.4637 72.6324 39.959 73.0814 40.2997C73.5304 40.6404 74.0553 40.8107 74.656 40.8107C75.0989 40.8107 75.4963 40.7161 75.8483 40.5268C76.2063 40.3375 76.5005 40.0631 76.7311 39.7035C76.9678 39.3375 77.1225 38.8991 77.1953 38.388H80.8542C80.7935 39.4984 80.5022 40.4763 79.9804 41.3218C79.4646 42.1609 78.7517 42.817 77.8415 43.2902C76.9314 43.7634 75.8543 44 74.6105 44Z" fill="#535353"/>
    <path d="M89.7077 44C88.2697 44 87.0319 43.6972 85.9943 43.0915C84.9628 42.4795 84.1679 41.6151 83.6097 40.4984C83.0514 39.3754 82.7723 38.0473 82.7723 36.5142C82.7723 35.0189 83.0514 33.7066 83.6097 32.5773C84.1679 31.4479 84.9537 30.5678 85.967 29.9369C86.9864 29.306 88.1817 28.9905 89.553 28.9905C90.4753 28.9905 91.3339 29.1451 92.1288 29.4543C92.9297 29.7571 93.6275 30.2145 94.2222 30.8265C94.8229 31.4385 95.2901 32.2082 95.6238 33.1356C95.9575 34.0568 96.1244 35.1356 96.1244 36.3722V37.4795H84.3196V34.9811H92.4746C92.4746 34.4006 92.3533 33.8864 92.1106 33.4385C91.8679 32.9905 91.5311 32.6404 91.1003 32.388C90.6756 32.1293 90.181 32 89.6167 32C89.0282 32 88.5063 32.142 88.0513 32.4259C87.6022 32.7035 87.2503 33.0789 86.9955 33.5521C86.7406 34.0189 86.6102 34.5394 86.6041 35.1136V37.489C86.6041 38.2082 86.7315 38.8297 86.9864 39.3533C87.2473 39.877 87.6144 40.2808 88.0877 40.5647C88.561 40.8486 89.1222 40.9905 89.7715 40.9905C90.2023 40.9905 90.5967 40.9274 90.9547 40.8013C91.3127 40.6751 91.6191 40.4858 91.8739 40.2334C92.1288 39.9811 92.3229 39.6719 92.4564 39.306L96.0425 39.5521C95.8604 40.448 95.4873 41.2303 94.923 41.8991C94.3647 42.5615 93.6427 43.0789 92.7568 43.4511C91.877 43.817 90.8606 44 89.7077 44Z" fill="#535353"/>
    <path d="M110.286 33.3249L106.737 33.5521C106.676 33.2366 106.546 32.9527 106.345 32.7003C106.145 32.4416 105.881 32.2366 105.554 32.0852C105.232 31.9274 104.847 31.8486 104.398 31.8486C103.797 31.8486 103.29 31.9811 102.878 32.2461C102.465 32.5047 102.259 32.8517 102.259 33.2871C102.259 33.6341 102.392 33.9274 102.659 34.1672C102.926 34.4069 103.384 34.5994 104.034 34.7445L106.564 35.2744C107.923 35.5647 108.936 36.0315 109.604 36.6751C110.271 37.3186 110.605 38.164 110.605 39.2114C110.605 40.164 110.335 41 109.795 41.7192C109.261 42.4385 108.527 43 107.592 43.4038C106.664 43.8013 105.593 44 104.38 44C102.529 44 101.054 43.5994 99.9562 42.7981C98.864 41.9905 98.2238 40.8927 98.0357 39.5047L101.849 39.2965C101.965 39.8833 102.244 40.3312 102.687 40.6404C103.13 40.9432 103.697 41.0946 104.389 41.0946C105.068 41.0946 105.614 40.959 106.027 40.6877C106.446 40.4101 106.658 40.0536 106.664 39.6183C106.658 39.2524 106.509 38.9527 106.218 38.7192C105.927 38.4795 105.478 38.2965 104.871 38.1703L102.45 37.6688C101.085 37.3849 100.068 36.8927 99.401 36.1924C98.7396 35.4921 98.4089 34.5994 98.4089 33.5142C98.4089 32.5804 98.6516 31.776 99.137 31.1009C99.6285 30.4259 100.317 29.9054 101.203 29.5394C102.095 29.1735 103.139 28.9905 104.334 28.9905C106.1 28.9905 107.489 29.3785 108.503 30.1546C109.522 30.9306 110.117 31.9874 110.286 33.3249Z" fill="#535353"/>
    <path d="M112.974 43.7161V41.3123L119.818 32.5016V32.3975H113.21V29.1798H124.487V31.8013L118.062 40.3943V40.4984H124.724V43.7161H112.974Z" fill="#535353"/>
    <path d="M138.772 43.9527C137.71 43.9527 136.749 43.6688 135.887 43.1009C135.031 42.5268 134.352 41.6845 133.848 40.5741C133.351 39.4574 133.102 38.0883 133.102 36.4669C133.102 34.8013 133.36 33.4164 133.876 32.3123C134.391 31.2019 135.077 30.3722 135.933 29.8233C136.794 29.2681 137.738 28.9905 138.763 28.9905C139.546 28.9905 140.198 29.1293 140.72 29.4069C141.248 29.6782 141.673 30.0189 141.994 30.429C142.322 30.8328 142.571 31.2303 142.741 31.6215H142.859V24.3344H146.727V43.7161H142.904V41.388H142.741C142.559 41.7918 142.301 42.1924 141.967 42.5899C141.639 42.9811 141.212 43.306 140.684 43.5647C140.162 43.8233 139.525 43.9527 138.772 43.9527ZM140.001 40.7445C140.626 40.7445 141.154 40.5678 141.585 40.2145C142.022 39.8549 142.355 39.3533 142.586 38.7098C142.822 38.0662 142.941 37.3123 142.941 36.4479C142.941 35.5836 142.826 34.8328 142.595 34.1956C142.364 33.5584 142.031 33.0662 141.594 32.7192C141.157 32.3722 140.626 32.1987 140.001 32.1987C139.364 32.1987 138.827 32.3785 138.39 32.7382C137.953 33.0978 137.622 33.5962 137.398 34.2334C137.173 34.8707 137.061 35.6088 137.061 36.4479C137.061 37.2934 137.173 38.041 137.398 38.6909C137.628 39.3344 137.959 39.8391 138.39 40.205C138.827 40.5647 139.364 40.7445 140.001 40.7445Z" fill="#535353"/>
    <path d="M149.842 43.7161V41.3123L156.687 32.5016V32.3975H150.079V29.1798H161.356V31.8013L154.93 40.3943V40.4984H161.592V43.7161H149.842Z" fill="#535353"/>
    <path d="M164.557 43.7161V29.1798H168.434V43.7161H164.557ZM166.505 27.306C165.928 27.306 165.434 27.1073 165.021 26.7098C164.615 26.306 164.411 25.8233 164.411 25.2618C164.411 24.7066 164.615 24.2303 165.021 23.8328C165.434 23.429 165.928 23.2271 166.505 23.2271C167.081 23.2271 167.573 23.429 167.979 23.8328C168.392 24.2303 168.598 24.7066 168.598 25.2618C168.598 25.8233 168.392 26.306 167.979 26.7098C167.573 27.1073 167.081 27.306 166.505 27.306Z" fill="#535353"/>
    <path d="M183.172 33.3249L179.623 33.5521C179.562 33.2366 179.431 32.9527 179.231 32.7003C179.031 32.4416 178.767 32.2366 178.439 32.0852C178.118 31.9274 177.732 31.8486 177.283 31.8486C176.683 31.8486 176.176 31.9811 175.763 32.2461C175.351 32.5047 175.145 32.8517 175.145 33.2871C175.145 33.6341 175.278 33.9274 175.545 34.1672C175.812 34.4069 176.27 34.5994 176.919 34.7445L179.45 35.2744C180.809 35.5647 181.822 36.0315 182.49 36.6751C183.157 37.3186 183.491 38.164 183.491 39.2114C183.491 40.164 183.221 41 182.681 41.7192C182.147 42.4385 181.413 43 180.478 43.4038C179.55 43.8013 178.479 44 177.265 44C175.415 44 173.94 43.5994 172.842 42.7981C171.75 41.9905 171.11 40.8927 170.921 39.5047L174.735 39.2965C174.85 39.8833 175.129 40.3312 175.572 40.6404C176.015 40.9432 176.583 41.0946 177.274 41.0946C177.954 41.0946 178.5 40.959 178.913 40.6877C179.331 40.4101 179.544 40.0536 179.55 39.6183C179.544 39.2524 179.395 38.9527 179.104 38.7192C178.813 38.4795 178.364 38.2965 177.757 38.1703L175.336 37.6688C173.97 37.3849 172.954 36.8927 172.287 36.1924C171.625 35.4921 171.295 34.5994 171.295 33.5142C171.295 32.5804 171.537 31.776 172.023 31.1009C172.514 30.4259 173.203 29.9054 174.089 29.5394C174.981 29.1735 176.024 28.9905 177.22 28.9905C178.985 28.9905 180.375 29.3785 181.388 30.1546C182.408 30.9306 183.002 31.9874 183.172 33.3249ZM175.909 27.306L177.839 23H181.425L178.649 27.306H175.909Z" fill="#535353"/>
    <path d="M191.791 43.7161V41.3123L198.636 32.5016V32.3975H192.028V29.1798H203.305V31.8013L196.879 40.3943V40.4984H203.542V43.7161H191.791Z" fill="#535353"/>
    <path d="M206.506 43.7161V29.1798H210.265V31.7161H210.411C210.666 30.8139 211.094 30.1325 211.694 29.6719C212.295 29.205 212.987 28.9716 213.77 28.9716C213.964 28.9716 214.173 28.9842 214.398 29.0095C214.622 29.0347 214.819 29.0694 214.989 29.1136V32.6909C214.807 32.6341 214.555 32.5836 214.234 32.5394C213.912 32.4953 213.618 32.4732 213.351 32.4732C212.78 32.4732 212.271 32.6025 211.822 32.8612C211.379 33.1136 211.027 33.4669 210.766 33.9211C210.511 34.3754 210.384 34.8991 210.384 35.4921V43.7161H206.506Z" fill="#535353"/>
    <path d="M222.66 44C221.246 44 220.023 43.6877 218.992 43.0631C217.966 42.4322 217.174 41.5552 216.616 40.4322C216.058 39.3028 215.779 37.9937 215.779 36.5047C215.779 35.0032 216.058 33.6909 216.616 32.5678C217.174 31.4385 217.966 30.5615 218.992 29.9369C220.023 29.306 221.246 28.9905 222.66 28.9905C224.073 28.9905 225.293 29.306 226.318 29.9369C227.35 30.5615 228.145 31.4385 228.703 32.5678C229.261 33.6909 229.54 35.0032 229.54 36.5047C229.54 37.9937 229.261 39.3028 228.703 40.4322C228.145 41.5552 227.35 42.4322 226.318 43.0631C225.293 43.6877 224.073 44 222.66 44ZM222.678 40.877C223.321 40.877 223.858 40.6877 224.289 40.3091C224.72 39.9243 225.044 39.4006 225.263 38.7382C225.487 38.0757 225.599 37.3218 225.599 36.4763C225.599 35.6309 225.487 34.877 225.263 34.2145C225.044 33.5521 224.72 33.0284 224.289 32.6435C223.858 32.2587 223.321 32.0662 222.678 32.0662C222.028 32.0662 221.482 32.2587 221.039 32.6435C220.603 33.0284 220.272 33.5521 220.047 34.2145C219.829 34.877 219.72 35.6309 219.72 36.4763C219.72 37.3218 219.829 38.0757 220.047 38.7382C220.272 39.4006 220.603 39.9243 221.039 40.3091C221.482 40.6877 222.028 40.877 222.678 40.877Z" fill="#535353"/>
    <path d="M232.134 43.7161V24.3344H236.012V31.6215H236.13C236.3 31.2303 236.546 30.8328 236.867 30.429C237.195 30.0189 237.62 29.6782 238.141 29.4069C238.669 29.1293 239.325 28.9905 240.107 28.9905C241.127 28.9905 242.067 29.2681 242.929 29.8233C243.79 30.3722 244.479 31.2019 244.995 32.3123C245.511 33.4164 245.769 34.8013 245.769 36.4669C245.769 38.0883 245.517 39.4574 245.013 40.5741C244.516 41.6845 243.836 42.5268 242.974 43.1009C242.119 43.6688 241.16 43.9527 240.098 43.9527C239.346 43.9527 238.706 43.8233 238.178 43.5647C237.656 43.306 237.228 42.9811 236.894 42.5899C236.561 42.1924 236.306 41.7918 236.13 41.388H235.957V43.7161H232.134ZM235.93 36.4479C235.93 37.3123 236.045 38.0662 236.276 38.7098C236.506 39.3533 236.84 39.8549 237.277 40.2145C237.714 40.5678 238.245 40.7445 238.87 40.7445C239.501 40.7445 240.035 40.5647 240.471 40.205C240.908 39.8391 241.239 39.3344 241.463 38.6909C241.694 38.041 241.809 37.2934 241.809 36.4479C241.809 35.6088 241.697 34.8707 241.473 34.2334C241.248 33.5962 240.917 33.0978 240.48 32.7382C240.044 32.3785 239.507 32.1987 238.87 32.1987C238.238 32.1987 237.704 32.3722 237.268 32.7192C236.837 33.0662 236.506 33.5584 236.276 34.1956C236.045 34.8328 235.93 35.5836 235.93 36.4479Z" fill="#535353"/>
    <path d="M248.356 43.7161V29.1798H252.233V43.7161H248.356ZM250.303 27.306C249.727 27.306 249.232 27.1073 248.82 26.7098C248.413 26.306 248.21 25.8233 248.21 25.2618C248.21 24.7066 248.413 24.2303 248.82 23.8328C249.232 23.429 249.727 23.2271 250.303 23.2271C250.88 23.2271 251.371 23.429 251.778 23.8328C252.19 24.2303 252.397 24.7066 252.397 25.2618C252.397 25.8233 252.19 26.306 251.778 26.7098C251.371 27.1073 250.88 27.306 250.303 27.306Z" fill="#535353"/>
    <path d="M261.655 44C260.223 44 258.992 43.6845 257.96 43.0536C256.935 42.4164 256.146 41.5331 255.594 40.4038C255.048 39.2744 254.775 37.9748 254.775 36.5047C254.775 35.0158 255.051 33.7098 255.603 32.5868C256.161 31.4574 256.953 30.5773 257.978 29.9464C259.004 29.3091 260.223 28.9905 261.637 28.9905C262.857 28.9905 263.925 29.2208 264.841 29.6814C265.757 30.142 266.482 30.7886 267.016 31.6215C267.55 32.4543 267.844 33.4322 267.899 34.5552H264.24C264.137 33.8297 263.864 33.2461 263.421 32.8044C262.984 32.3565 262.411 32.1325 261.701 32.1325C261.1 32.1325 260.575 32.3028 260.126 32.6435C259.683 32.9779 259.337 33.4669 259.089 34.1104C258.84 34.7539 258.716 35.5331 258.716 36.4479C258.716 37.3754 258.837 38.164 259.08 38.8139C259.328 39.4637 259.677 39.959 260.126 40.2997C260.575 40.6404 261.1 40.8107 261.701 40.8107C262.144 40.8107 262.541 40.7161 262.893 40.5268C263.251 40.3375 263.546 40.0631 263.776 39.7035C264.013 39.3375 264.167 38.8991 264.24 38.388H267.899C267.838 39.4984 267.547 40.4763 267.025 41.3218C266.51 42.1609 265.797 42.817 264.886 43.2902C263.976 43.7634 262.899 44 261.655 44ZM260.254 27.306L262.183 23H265.769L262.993 27.306H260.254Z" fill="#535353"/>
    <path d="M279.645 37.9054V37.5836C279.651 36.4795 279.745 35.5994 279.927 34.9432C280.115 34.2871 280.388 33.7571 280.746 33.3533C281.104 32.9495 281.535 32.5836 282.038 32.2555C282.415 32.0032 282.751 31.7413 283.049 31.47C283.346 31.1987 283.583 30.8991 283.759 30.571C283.935 30.2366 284.023 29.8644 284.023 29.4543C284.023 29.0189 283.922 28.6372 283.722 28.3091C283.522 27.9811 283.252 27.7287 282.912 27.552C282.578 27.3754 282.208 27.2871 281.802 27.2871C281.407 27.2871 281.034 27.3785 280.682 27.5615C280.33 27.7382 280.042 28.0032 279.818 28.3565C279.593 28.7035 279.472 29.1356 279.454 29.653H275.74C275.77 28.3912 276.062 27.3502 276.614 26.53C277.166 25.7035 277.897 25.0883 278.807 24.6845C279.718 24.2744 280.722 24.0694 281.82 24.0694C283.027 24.0694 284.095 24.2776 285.024 24.694C285.952 25.1041 286.68 25.7003 287.208 26.4826C287.736 27.265 288 28.2082 288 29.3123C288 30.0505 287.882 30.7066 287.645 31.2808C287.414 31.8486 287.09 32.3533 286.671 32.795C286.252 33.2303 285.758 33.6246 285.188 33.9779C284.708 34.2744 284.314 34.5836 284.004 34.9054C283.701 35.2271 283.473 35.5994 283.322 36.0221C283.176 36.4448 283.1 36.9653 283.094 37.5836V37.9054H279.645ZM281.447 43.9621C280.84 43.9621 280.321 43.7413 279.89 43.2997C279.466 42.8517 279.256 42.3155 279.262 41.6909C279.256 41.0726 279.466 40.5426 279.89 40.1009C280.321 39.6593 280.84 39.4385 281.447 39.4385C282.023 39.4385 282.53 39.6593 282.967 40.1009C283.404 40.5426 283.625 41.0726 283.631 41.6909C283.625 42.1073 283.519 42.489 283.313 42.836C283.112 43.1767 282.848 43.4511 282.521 43.6593C282.193 43.8612 281.835 43.9621 281.447 43.9621Z" fill="#535353"/>
</svg>
