<svg width="241" height="34" viewBox="0 0 241 4" fill="none" xmlns="http://www.w3.org/2000/svg">
    <path d="M1.54936 3.13494C1.1611 3.13494 0.827297 2.99763 0.54794 2.72301C0.268584 2.44366 0.128906 2.10748 0.128906 1.71449C0.128906 1.32623 0.268584 0.994792 0.54794 0.72017C0.827297 0.440814 1.1611 0.301136 1.54936 0.301136C1.93762 0.301136 2.27143 0.440814 2.55078 0.72017C2.83014 0.994792 2.96982 1.32623 2.96982 1.71449C2.96982 1.97491 2.90353 2.21402 2.77095 2.43182C2.64311 2.64489 2.47266 2.81534 2.25959 2.94318C2.04652 3.07102 1.80978 3.13494 1.54936 3.13494ZM7.21342 3.13494C6.82517 3.13494 6.49136 2.99763 6.212 2.72301C5.93265 2.44366 5.79297 2.10748 5.79297 1.71449C5.79297 1.32623 5.93265 0.994792 6.212 0.72017C6.49136 0.440814 6.82517 0.301136 7.21342 0.301136C7.60168 0.301136 7.93549 0.440814 8.21484 0.72017C8.4942 0.994792 8.63388 1.32623 8.63388 1.71449C8.63388 1.97491 8.56759 2.21402 8.43501 2.43182C8.30717 2.64489 8.13672 2.81534 7.92365 2.94318C7.71058 3.07102 7.47384 3.13494 7.21342 3.13494ZM12.8775 3.13494C12.4892 3.13494 12.1554 2.99763 11.8761 2.72301C11.5967 2.44366 11.457 2.10748 11.457 1.71449C11.457 1.32623 11.5967 0.994792 11.8761 0.72017C12.1554 0.440814 12.4892 0.301136 12.8775 0.301136C13.2657 0.301136 13.5996 0.440814 13.8789 0.72017C14.1583 0.994792 14.2979 1.32623 14.2979 1.71449C14.2979 1.97491 14.2317 2.21402 14.0991 2.43182C13.9712 2.64489 13.8008 2.81534 13.5877 2.94318C13.3746 3.07102 13.1379 3.13494 12.8775 3.13494ZM18.5415 3.13494C18.1533 3.13494 17.8195 2.99763 17.5401 2.72301C17.2608 2.44366 17.1211 2.10748 17.1211 1.71449C17.1211 1.32623 17.2608 0.994792 17.5401 0.72017C17.8195 0.440814 18.1533 0.301136 18.5415 0.301136C18.9298 0.301136 19.2636 0.440814 19.543 0.72017C19.8223 0.994792 19.962 1.32623 19.962 1.71449C19.962 1.97491 19.8957 2.21402 19.7631 2.43182C19.6353 2.64489 19.4648 2.81534 19.2518 2.94318C19.0387 3.07102 18.802 3.13494 18.5415 3.13494ZM24.2056 3.13494C23.8174 3.13494 23.4835 2.99763 23.2042 2.72301C22.9248 2.44366 22.7852 2.10748 22.7852 1.71449C22.7852 1.32623 22.9248 0.994792 23.2042 0.72017C23.4835 0.440814 23.8174 0.301136 24.2056 0.301136C24.5939 0.301136 24.9277 0.440814 25.207 0.72017C25.4864 0.994792 25.6261 1.32623 25.6261 1.71449C25.6261 1.97491 25.5598 2.21402 25.4272 2.43182C25.2994 2.64489 25.1289 2.81534 24.9158 2.94318C24.7028 3.07102 24.466 3.13494 24.2056 3.13494ZM29.8697 3.13494C29.4814 3.13494 29.1476 2.99763 28.8683 2.72301C28.5889 2.44366 28.4492 2.10748 28.4492 1.71449C28.4492 1.32623 28.5889 0.994792 28.8683 0.72017C29.1476 0.440814 29.4814 0.301136 29.8697 0.301136C30.2579 0.301136 30.5917 0.440814 30.8711 0.72017C31.1504 0.994792 31.2901 1.32623 31.2901 1.71449C31.2901 1.97491 31.2238 2.21402 31.0913 2.43182C30.9634 2.64489 30.793 2.81534 30.5799 2.94318C30.3668 3.07102 30.1301 3.13494 29.8697 3.13494ZM35.5337 3.13494C35.1455 3.13494 34.8117 2.99763 34.5323 2.72301C34.253 2.44366 34.1133 2.10748 34.1133 1.71449C34.1133 1.32623 34.253 0.994792 34.5323 0.72017C34.8117 0.440814 35.1455 0.301136 35.5337 0.301136C35.922 0.301136 36.2558 0.440814 36.5352 0.72017C36.8145 0.994792 36.9542 1.32623 36.9542 1.71449C36.9542 1.97491 36.8879 2.21402 36.7553 2.43182C36.6275 2.64489 36.457 2.81534 36.244 2.94318C36.0309 3.07102 35.7942 3.13494 35.5337 3.13494ZM41.1978 3.13494C40.8095 3.13494 40.4757 2.99763 40.1964 2.72301C39.917 2.44366 39.7773 2.10748 39.7773 1.71449C39.7773 1.32623 39.917 0.994792 40.1964 0.72017C40.4757 0.440814 40.8095 0.301136 41.1978 0.301136C41.5861 0.301136 41.9199 0.440814 42.1992 0.72017C42.4786 0.994792 42.6183 1.32623 42.6183 1.71449C42.6183 1.97491 42.552 2.21402 42.4194 2.43182C42.2915 2.64489 42.1211 2.81534 41.908 2.94318C41.695 3.07102 41.4582 3.13494 41.1978 3.13494ZM46.8619 3.13494C46.4736 3.13494 46.1398 2.99763 45.8604 2.72301C45.5811 2.44366 45.4414 2.10748 45.4414 1.71449C45.4414 1.32623 45.5811 0.994792 45.8604 0.72017C46.1398 0.440814 46.4736 0.301136 46.8619 0.301136C47.2501 0.301136 47.5839 0.440814 47.8633 0.72017C48.1426 0.994792 48.2823 1.32623 48.2823 1.71449C48.2823 1.97491 48.216 2.21402 48.0835 2.43182C47.9556 2.64489 47.7852 2.81534 47.5721 2.94318C47.359 3.07102 47.1223 3.13494 46.8619 3.13494ZM52.5259 3.13494C52.1377 3.13494 51.8039 2.99763 51.5245 2.72301C51.2451 2.44366 51.1055 2.10748 51.1055 1.71449C51.1055 1.32623 51.2451 0.994792 51.5245 0.72017C51.8039 0.440814 52.1377 0.301136 52.5259 0.301136C52.9142 0.301136 53.248 0.440814 53.5273 0.72017C53.8067 0.994792 53.9464 1.32623 53.9464 1.71449C53.9464 1.97491 53.8801 2.21402 53.7475 2.43182C53.6197 2.64489 53.4492 2.81534 53.2362 2.94318C53.0231 3.07102 52.7863 3.13494 52.5259 3.13494ZM58.19 3.13494C57.8017 3.13494 57.4679 2.99763 57.1886 2.72301C56.9092 2.44366 56.7695 2.10748 56.7695 1.71449C56.7695 1.32623 56.9092 0.994792 57.1886 0.72017C57.4679 0.440814 57.8017 0.301136 58.19 0.301136C58.5782 0.301136 58.9121 0.440814 59.1914 0.72017C59.4708 0.994792 59.6104 1.32623 59.6104 1.71449C59.6104 1.97491 59.5442 2.21402 59.4116 2.43182C59.2837 2.64489 59.1133 2.81534 58.9002 2.94318C58.6871 3.07102 58.4504 3.13494 58.19 3.13494ZM63.854 3.13494C63.4658 3.13494 63.132 2.99763 62.8526 2.72301C62.5733 2.44366 62.4336 2.10748 62.4336 1.71449C62.4336 1.32623 62.5733 0.994792 62.8526 0.72017C63.132 0.440814 63.4658 0.301136 63.854 0.301136C64.2423 0.301136 64.5761 0.440814 64.8555 0.72017C65.1348 0.994792 65.2745 1.32623 65.2745 1.71449C65.2745 1.97491 65.2082 2.21402 65.0756 2.43182C64.9478 2.64489 64.7773 2.81534 64.5643 2.94318C64.3512 3.07102 64.1145 3.13494 63.854 3.13494ZM69.5181 3.13494C69.1299 3.13494 68.796 2.99763 68.5167 2.72301C68.2373 2.44366 68.0977 2.10748 68.0977 1.71449C68.0977 1.32623 68.2373 0.994792 68.5167 0.72017C68.796 0.440814 69.1299 0.301136 69.5181 0.301136C69.9064 0.301136 70.2402 0.440814 70.5195 0.72017C70.7989 0.994792 70.9386 1.32623 70.9386 1.71449C70.9386 1.97491 70.8723 2.21402 70.7397 2.43182C70.6119 2.64489 70.4414 2.81534 70.2283 2.94318C70.0153 3.07102 69.7785 3.13494 69.5181 3.13494ZM75.1822 3.13494C74.7939 3.13494 74.4601 2.99763 74.1808 2.72301C73.9014 2.44366 73.7617 2.10748 73.7617 1.71449C73.7617 1.32623 73.9014 0.994792 74.1808 0.72017C74.4601 0.440814 74.7939 0.301136 75.1822 0.301136C75.5704 0.301136 75.9042 0.440814 76.1836 0.72017C76.4629 0.994792 76.6026 1.32623 76.6026 1.71449C76.6026 1.97491 76.5363 2.21402 76.4038 2.43182C76.2759 2.64489 76.1055 2.81534 75.8924 2.94318C75.6793 3.07102 75.4426 3.13494 75.1822 3.13494ZM80.8462 3.13494C80.458 3.13494 80.1242 2.99763 79.8448 2.72301C79.5655 2.44366 79.4258 2.10748 79.4258 1.71449C79.4258 1.32623 79.5655 0.994792 79.8448 0.72017C80.1242 0.440814 80.458 0.301136 80.8462 0.301136C81.2345 0.301136 81.5683 0.440814 81.8477 0.72017C82.127 0.994792 82.2667 1.32623 82.2667 1.71449C82.2667 1.97491 82.2004 2.21402 82.0678 2.43182C81.94 2.64489 81.7695 2.81534 81.5565 2.94318C81.3434 3.07102 81.1067 3.13494 80.8462 3.13494ZM86.5103 3.13494C86.122 3.13494 85.7882 2.99763 85.5089 2.72301C85.2295 2.44366 85.0898 2.10748 85.0898 1.71449C85.0898 1.32623 85.2295 0.994792 85.5089 0.72017C85.7882 0.440814 86.122 0.301136 86.5103 0.301136C86.8986 0.301136 87.2324 0.440814 87.5117 0.72017C87.7911 0.994792 87.9308 1.32623 87.9308 1.71449C87.9308 1.97491 87.8645 2.21402 87.7319 2.43182C87.604 2.64489 87.4336 2.81534 87.2205 2.94318C87.0075 3.07102 86.7707 3.13494 86.5103 3.13494ZM92.1744 3.13494C91.7861 3.13494 91.4523 2.99763 91.1729 2.72301C90.8936 2.44366 90.7539 2.10748 90.7539 1.71449C90.7539 1.32623 90.8936 0.994792 91.1729 0.72017C91.4523 0.440814 91.7861 0.301136 92.1744 0.301136C92.5626 0.301136 92.8964 0.440814 93.1758 0.72017C93.4551 0.994792 93.5948 1.32623 93.5948 1.71449C93.5948 1.97491 93.5285 2.21402 93.396 2.43182C93.2681 2.64489 93.0977 2.81534 92.8846 2.94318C92.6715 3.07102 92.4348 3.13494 92.1744 3.13494ZM97.8384 3.13494C97.4502 3.13494 97.1164 2.99763 96.837 2.72301C96.5576 2.44366 96.418 2.10748 96.418 1.71449C96.418 1.32623 96.5576 0.994792 96.837 0.72017C97.1164 0.440814 97.4502 0.301136 97.8384 0.301136C98.2267 0.301136 98.5605 0.440814 98.8398 0.72017C99.1192 0.994792 99.2589 1.32623 99.2589 1.71449C99.2589 1.97491 99.1926 2.21402 99.06 2.43182C98.9322 2.64489 98.7617 2.81534 98.5487 2.94318C98.3356 3.07102 98.0988 3.13494 97.8384 3.13494ZM103.502 3.13494C103.114 3.13494 102.78 2.99763 102.501 2.72301C102.222 2.44366 102.082 2.10748 102.082 1.71449C102.082 1.32623 102.222 0.994792 102.501 0.72017C102.78 0.440814 103.114 0.301136 103.502 0.301136C103.891 0.301136 104.225 0.440814 104.504 0.72017C104.783 0.994792 104.923 1.32623 104.923 1.71449C104.923 1.97491 104.857 2.21402 104.724 2.43182C104.596 2.64489 104.426 2.81534 104.213 2.94318C104 3.07102 103.763 3.13494 103.502 3.13494ZM109.167 3.13494C108.778 3.13494 108.444 2.99763 108.165 2.72301C107.886 2.44366 107.746 2.10748 107.746 1.71449C107.746 1.32623 107.886 0.994792 108.165 0.72017C108.444 0.440814 108.778 0.301136 109.167 0.301136C109.555 0.301136 109.889 0.440814 110.168 0.72017C110.447 0.994792 110.587 1.32623 110.587 1.71449C110.587 1.97491 110.521 2.21402 110.388 2.43182C110.26 2.64489 110.09 2.81534 109.877 2.94318C109.664 3.07102 109.427 3.13494 109.167 3.13494ZM114.831 3.13494C114.442 3.13494 114.109 2.99763 113.829 2.72301C113.55 2.44366 113.41 2.10748 113.41 1.71449C113.41 1.32623 113.55 0.994792 113.829 0.72017C114.109 0.440814 114.442 0.301136 114.831 0.301136C115.219 0.301136 115.553 0.440814 115.832 0.72017C116.111 0.994792 116.251 1.32623 116.251 1.71449C116.251 1.97491 116.185 2.21402 116.052 2.43182C115.924 2.64489 115.754 2.81534 115.541 2.94318C115.328 3.07102 115.091 3.13494 114.831 3.13494ZM120.495 3.13494C120.106 3.13494 119.773 2.99763 119.493 2.72301C119.214 2.44366 119.074 2.10748 119.074 1.71449C119.074 1.32623 119.214 0.994792 119.493 0.72017C119.773 0.440814 120.106 0.301136 120.495 0.301136C120.883 0.301136 121.217 0.440814 121.496 0.72017C121.775 0.994792 121.915 1.32623 121.915 1.71449C121.915 1.97491 121.849 2.21402 121.716 2.43182C121.588 2.64489 121.418 2.81534 121.205 2.94318C120.992 3.07102 120.755 3.13494 120.495 3.13494ZM126.159 3.13494C125.77 3.13494 125.437 2.99763 125.157 2.72301C124.878 2.44366 124.738 2.10748 124.738 1.71449C124.738 1.32623 124.878 0.994792 125.157 0.72017C125.437 0.440814 125.77 0.301136 126.159 0.301136C126.547 0.301136 126.881 0.440814 127.16 0.72017C127.44 0.994792 127.579 1.32623 127.579 1.71449C127.579 1.97491 127.513 2.21402 127.38 2.43182C127.252 2.64489 127.082 2.81534 126.869 2.94318C126.656 3.07102 126.419 3.13494 126.159 3.13494ZM131.823 3.13494C131.435 3.13494 131.101 2.99763 130.821 2.72301C130.542 2.44366 130.402 2.10748 130.402 1.71449C130.402 1.32623 130.542 0.994792 130.821 0.72017C131.101 0.440814 131.435 0.301136 131.823 0.301136C132.211 0.301136 132.545 0.440814 132.824 0.72017C133.104 0.994792 133.243 1.32623 133.243 1.71449C133.243 1.97491 133.177 2.21402 133.044 2.43182C132.917 2.64489 132.746 2.81534 132.533 2.94318C132.32 3.07102 132.083 3.13494 131.823 3.13494ZM137.487 3.13494C137.099 3.13494 136.765 2.99763 136.485 2.72301C136.206 2.44366 136.066 2.10748 136.066 1.71449C136.066 1.32623 136.206 0.994792 136.485 0.72017C136.765 0.440814 137.099 0.301136 137.487 0.301136C137.875 0.301136 138.209 0.440814 138.488 0.72017C138.768 0.994792 138.907 1.32623 138.907 1.71449C138.907 1.97491 138.841 2.21402 138.708 2.43182C138.581 2.64489 138.41 2.81534 138.197 2.94318C137.984 3.07102 137.747 3.13494 137.487 3.13494ZM143.151 3.13494C142.763 3.13494 142.429 2.99763 142.15 2.72301C141.87 2.44366 141.73 2.10748 141.73 1.71449C141.73 1.32623 141.87 0.994792 142.15 0.72017C142.429 0.440814 142.763 0.301136 143.151 0.301136C143.539 0.301136 143.873 0.440814 144.152 0.72017C144.432 0.994792 144.571 1.32623 144.571 1.71449C144.571 1.97491 144.505 2.21402 144.373 2.43182C144.245 2.64489 144.074 2.81534 143.861 2.94318C143.648 3.07102 143.411 3.13494 143.151 3.13494ZM148.815 3.13494C148.427 3.13494 148.093 2.99763 147.814 2.72301C147.534 2.44366 147.395 2.10748 147.395 1.71449C147.395 1.32623 147.534 0.994792 147.814 0.72017C148.093 0.440814 148.427 0.301136 148.815 0.301136C149.203 0.301136 149.537 0.440814 149.816 0.72017C150.096 0.994792 150.235 1.32623 150.235 1.71449C150.235 1.97491 150.169 2.21402 150.037 2.43182C149.909 2.64489 149.738 2.81534 149.525 2.94318C149.312 3.07102 149.075 3.13494 148.815 3.13494ZM154.479 3.13494C154.091 3.13494 153.757 2.99763 153.478 2.72301C153.198 2.44366 153.059 2.10748 153.059 1.71449C153.059 1.32623 153.198 0.994792 153.478 0.72017C153.757 0.440814 154.091 0.301136 154.479 0.301136C154.867 0.301136 155.201 0.440814 155.48 0.72017C155.76 0.994792 155.9 1.32623 155.9 1.71449C155.9 1.97491 155.833 2.21402 155.701 2.43182C155.573 2.64489 155.402 2.81534 155.189 2.94318C154.976 3.07102 154.739 3.13494 154.479 3.13494ZM160.143 3.13494C159.755 3.13494 159.421 2.99763 159.142 2.72301C158.862 2.44366 158.723 2.10748 158.723 1.71449C158.723 1.32623 158.862 0.994792 159.142 0.72017C159.421 0.440814 159.755 0.301136 160.143 0.301136C160.531 0.301136 160.865 0.440814 161.145 0.72017C161.424 0.994792 161.564 1.32623 161.564 1.71449C161.564 1.97491 161.497 2.21402 161.365 2.43182C161.237 2.64489 161.066 2.81534 160.853 2.94318C160.64 3.07102 160.404 3.13494 160.143 3.13494ZM165.807 3.13494C165.419 3.13494 165.085 2.99763 164.806 2.72301C164.526 2.44366 164.387 2.10748 164.387 1.71449C164.387 1.32623 164.526 0.994792 164.806 0.72017C165.085 0.440814 165.419 0.301136 165.807 0.301136C166.195 0.301136 166.529 0.440814 166.809 0.72017C167.088 0.994792 167.228 1.32623 167.228 1.71449C167.228 1.97491 167.161 2.21402 167.029 2.43182C166.901 2.64489 166.73 2.81534 166.517 2.94318C166.304 3.07102 166.068 3.13494 165.807 3.13494ZM171.471 3.13494C171.083 3.13494 170.749 2.99763 170.47 2.72301C170.19 2.44366 170.051 2.10748 170.051 1.71449C170.051 1.32623 170.19 0.994792 170.47 0.72017C170.749 0.440814 171.083 0.301136 171.471 0.301136C171.859 0.301136 172.193 0.440814 172.473 0.72017C172.752 0.994792 172.892 1.32623 172.892 1.71449C172.892 1.97491 172.825 2.21402 172.693 2.43182C172.565 2.64489 172.395 2.81534 172.181 2.94318C171.968 3.07102 171.732 3.13494 171.471 3.13494ZM177.135 3.13494C176.747 3.13494 176.413 2.99763 176.134 2.72301C175.855 2.44366 175.715 2.10748 175.715 1.71449C175.715 1.32623 175.855 0.994792 176.134 0.72017C176.413 0.440814 176.747 0.301136 177.135 0.301136C177.524 0.301136 177.857 0.440814 178.137 0.72017C178.416 0.994792 178.556 1.32623 178.556 1.71449C178.556 1.97491 178.489 2.21402 178.357 2.43182C178.229 2.64489 178.059 2.81534 177.846 2.94318C177.632 3.07102 177.396 3.13494 177.135 3.13494ZM182.799 3.13494C182.411 3.13494 182.077 2.99763 181.798 2.72301C181.519 2.44366 181.379 2.10748 181.379 1.71449C181.379 1.32623 181.519 0.994792 181.798 0.72017C182.077 0.440814 182.411 0.301136 182.799 0.301136C183.188 0.301136 183.521 0.440814 183.801 0.72017C184.08 0.994792 184.22 1.32623 184.22 1.71449C184.22 1.97491 184.154 2.21402 184.021 2.43182C183.893 2.64489 183.723 2.81534 183.51 2.94318C183.297 3.07102 183.06 3.13494 182.799 3.13494ZM188.463 3.13494C188.075 3.13494 187.741 2.99763 187.462 2.72301C187.183 2.44366 187.043 2.10748 187.043 1.71449C187.043 1.32623 187.183 0.994792 187.462 0.72017C187.741 0.440814 188.075 0.301136 188.463 0.301136C188.852 0.301136 189.185 0.440814 189.465 0.72017C189.744 0.994792 189.884 1.32623 189.884 1.71449C189.884 1.97491 189.818 2.21402 189.685 2.43182C189.557 2.64489 189.387 2.81534 189.174 2.94318C188.961 3.07102 188.724 3.13494 188.463 3.13494ZM194.127 3.13494C193.739 3.13494 193.405 2.99763 193.126 2.72301C192.847 2.44366 192.707 2.10748 192.707 1.71449C192.707 1.32623 192.847 0.994792 193.126 0.72017C193.405 0.440814 193.739 0.301136 194.127 0.301136C194.516 0.301136 194.85 0.440814 195.129 0.72017C195.408 0.994792 195.548 1.32623 195.548 1.71449C195.548 1.97491 195.482 2.21402 195.349 2.43182C195.221 2.64489 195.051 2.81534 194.838 2.94318C194.625 3.07102 194.388 3.13494 194.127 3.13494ZM199.792 3.13494C199.403 3.13494 199.069 2.99763 198.79 2.72301C198.511 2.44366 198.371 2.10748 198.371 1.71449C198.371 1.32623 198.511 0.994792 198.79 0.72017C199.069 0.440814 199.403 0.301136 199.792 0.301136C200.18 0.301136 200.514 0.440814 200.793 0.72017C201.072 0.994792 201.212 1.32623 201.212 1.71449C201.212 1.97491 201.146 2.21402 201.013 2.43182C200.885 2.64489 200.715 2.81534 200.502 2.94318C200.289 3.07102 200.052 3.13494 199.792 3.13494ZM205.456 3.13494C205.067 3.13494 204.734 2.99763 204.454 2.72301C204.175 2.44366 204.035 2.10748 204.035 1.71449C204.035 1.32623 204.175 0.994792 204.454 0.72017C204.734 0.440814 205.067 0.301136 205.456 0.301136C205.844 0.301136 206.178 0.440814 206.457 0.72017C206.736 0.994792 206.876 1.32623 206.876 1.71449C206.876 1.97491 206.81 2.21402 206.677 2.43182C206.549 2.64489 206.379 2.81534 206.166 2.94318C205.953 3.07102 205.716 3.13494 205.456 3.13494ZM211.12 3.13494C210.731 3.13494 210.398 2.99763 210.118 2.72301C209.839 2.44366 209.699 2.10748 209.699 1.71449C209.699 1.32623 209.839 0.994792 210.118 0.72017C210.398 0.440814 210.731 0.301136 211.12 0.301136C211.508 0.301136 211.842 0.440814 212.121 0.72017C212.4 0.994792 212.54 1.32623 212.54 1.71449C212.54 1.97491 212.474 2.21402 212.341 2.43182C212.213 2.64489 212.043 2.81534 211.83 2.94318C211.617 3.07102 211.38 3.13494 211.12 3.13494ZM216.784 3.13494C216.395 3.13494 216.062 2.99763 215.782 2.72301C215.503 2.44366 215.363 2.10748 215.363 1.71449C215.363 1.32623 215.503 0.994792 215.782 0.72017C216.062 0.440814 216.395 0.301136 216.784 0.301136C217.172 0.301136 217.506 0.440814 217.785 0.72017C218.065 0.994792 218.204 1.32623 218.204 1.71449C218.204 1.97491 218.138 2.21402 218.005 2.43182C217.877 2.64489 217.707 2.81534 217.494 2.94318C217.281 3.07102 217.044 3.13494 216.784 3.13494ZM222.448 3.13494C222.06 3.13494 221.726 2.99763 221.446 2.72301C221.167 2.44366 221.027 2.10748 221.027 1.71449C221.027 1.32623 221.167 0.994792 221.446 0.72017C221.726 0.440814 222.06 0.301136 222.448 0.301136C222.836 0.301136 223.17 0.440814 223.449 0.72017C223.729 0.994792 223.868 1.32623 223.868 1.71449C223.868 1.97491 223.802 2.21402 223.669 2.43182C223.542 2.64489 223.371 2.81534 223.158 2.94318C222.945 3.07102 222.708 3.13494 222.448 3.13494ZM228.112 3.13494C227.724 3.13494 227.39 2.99763 227.11 2.72301C226.831 2.44366 226.691 2.10748 226.691 1.71449C226.691 1.32623 226.831 0.994792 227.11 0.72017C227.39 0.440814 227.724 0.301136 228.112 0.301136C228.5 0.301136 228.834 0.440814 229.113 0.72017C229.393 0.994792 229.532 1.32623 229.532 1.71449C229.532 1.97491 229.466 2.21402 229.333 2.43182C229.206 2.64489 229.035 2.81534 228.822 2.94318C228.609 3.07102 228.372 3.13494 228.112 3.13494ZM233.776 3.13494C233.388 3.13494 233.054 2.99763 232.775 2.72301C232.495 2.44366 232.355 2.10748 232.355 1.71449C232.355 1.32623 232.495 0.994792 232.775 0.72017C233.054 0.440814 233.388 0.301136 233.776 0.301136C234.164 0.301136 234.498 0.440814 234.777 0.72017C235.057 0.994792 235.196 1.32623 235.196 1.71449C235.196 1.97491 235.13 2.21402 234.998 2.43182C234.87 2.64489 234.699 2.81534 234.486 2.94318C234.273 3.07102 234.036 3.13494 233.776 3.13494ZM239.44 3.13494C239.052 3.13494 238.718 2.99763 238.439 2.72301C238.159 2.44366 238.02 2.10748 238.02 1.71449C238.02 1.32623 238.159 0.994792 238.439 0.72017C238.718 0.440814 239.052 0.301136 239.44 0.301136C239.828 0.301136 240.162 0.440814 240.441 0.72017C240.721 0.994792 240.86 1.32623 240.86 1.71449C240.86 1.97491 240.794 2.21402 240.662 2.43182C240.534 2.64489 240.363 2.81534 240.15 2.94318C239.937 3.07102 239.7 3.13494 239.44 3.13494ZM114.831 3.13494C114.442 3.13494 114.109 2.99763 113.829 2.72301C113.55 2.44366 113.41 2.10748 113.41 1.71449C113.41 1.32623 113.55 0.994792 113.829 0.72017C114.109 0.440814 114.442 0.301136 114.831 0.301136C115.219 0.301136 115.553 0.440814 115.832 0.72017C116.111 0.994792 116.251 1.32623 116.251 1.71449C116.251 1.97491 116.185 2.21402 116.052 2.43182C115.924 2.64489 115.754 2.81534 115.541 2.94318C115.328 3.07102 115.091 3.13494 114.831 3.13494ZM120.495 3.13494C120.106 3.13494 119.773 2.99763 119.493 2.72301C119.214 2.44366 119.074 2.10748 119.074 1.71449C119.074 1.32623 119.214 0.994792 119.493 0.72017C119.773 0.440814 120.106 0.301136 120.495 0.301136C120.883 0.301136 121.217 0.440814 121.496 0.72017C121.775 0.994792 121.915 1.32623 121.915 1.71449C121.915 1.97491 121.849 2.21402 121.716 2.43182C121.588 2.64489 121.418 2.81534 121.205 2.94318C120.992 3.07102 120.755 3.13494 120.495 3.13494ZM126.159 3.13494C125.77 3.13494 125.437 2.99763 125.157 2.72301C124.878 2.44366 124.738 2.10748 124.738 1.71449C124.738 1.32623 124.878 0.994792 125.157 0.72017C125.437 0.440814 125.77 0.301136 126.159 0.301136C126.547 0.301136 126.881 0.440814 127.16 0.72017C127.44 0.994792 127.579 1.32623 127.579 1.71449C127.579 1.97491 127.513 2.21402 127.38 2.43182C127.252 2.64489 127.082 2.81534 126.869 2.94318C126.656 3.07102 126.419 3.13494 126.159 3.13494Z" fill="#535353"/>
</svg>
